<svg width="196" height="30" viewBox="0 0 196 30" fill="none" xmlns="http://www.w3.org/2000/svg">
<path d="M4.994 23.242C4.51 22.3473 4.04067 21.416 3.586 20.448C3.146 19.48 2.728 18.5047 2.332 17.522C1.95067 16.5247 1.59867 15.5347 1.276 14.552C0.953333 13.5547 0.674667 12.5793 0.44 11.626H1.958C2.11933 12.33 2.32467 13.0927 2.574 13.914C2.82333 14.7207 3.102 15.5567 3.41 16.422C3.73267 17.2873 4.08467 18.1747 4.466 19.084C4.84733 19.9933 5.258 20.888 5.698 21.768C6.02067 20.8587 6.30667 20.0007 6.556 19.194C6.80533 18.3873 7.03267 17.588 7.238 16.796C7.458 15.9893 7.66333 15.168 7.854 14.332C8.05933 13.496 8.272 12.594 8.492 11.626H9.922C9.45267 13.7527 8.91733 15.8207 8.316 17.83C7.71467 19.8393 7.062 21.68 6.358 23.352C6.07933 24.012 5.79333 24.5767 5.5 25.046C5.20667 25.53 4.87667 25.926 4.51 26.234C4.158 26.542 3.74 26.7693 3.256 26.916C2.78667 27.0627 2.22933 27.136 1.584 27.136C1.21733 27.136 0.88 27.092 0.572 27.004C0.278667 26.916 0.0953333 26.85 0.022 26.806L0.308 25.618C0.366667 25.662 0.528 25.7207 0.792 25.794C1.07067 25.882 1.35667 25.926 1.65 25.926C2.06067 25.926 2.42733 25.882 2.75 25.794C3.08733 25.706 3.388 25.552 3.652 25.332C3.916 25.1267 4.15067 24.8553 4.356 24.518C4.576 24.1807 4.78867 23.7553 4.994 23.242ZM11.4759 11.626H12.9059V14.706C12.9059 15.762 13.1406 16.488 13.6099 16.884C14.0939 17.28 14.7833 17.478 15.6779 17.478C16.4259 17.478 17.0053 17.4413 17.4159 17.368C17.8413 17.2947 18.2006 17.2067 18.4939 17.104V11.626H19.9239V23H18.4939V18.314C18.3913 18.3433 18.2373 18.3873 18.0319 18.446C17.8413 18.49 17.6139 18.534 17.3499 18.578C17.0859 18.622 16.7999 18.666 16.4919 18.71C16.1986 18.7393 15.8979 18.754 15.5899 18.754C14.9593 18.754 14.3873 18.688 13.8739 18.556C13.3753 18.424 12.9426 18.204 12.5759 17.896C12.2239 17.588 11.9526 17.1847 11.7619 16.686C11.5713 16.1727 11.4759 15.542 11.4759 14.794V11.626ZM31.4426 13.452C31.0026 13.98 30.4893 14.6473 29.9026 15.454C29.3306 16.2607 28.744 17.1113 28.1426 18.006C27.556 18.9007 26.9913 19.788 26.4486 20.668C25.906 21.548 25.4366 22.3253 25.0406 23H23.6986V11.626H25.1066V20.734C25.4586 20.1033 25.8913 19.3773 26.4046 18.556C26.9326 17.72 27.49 16.884 28.0766 16.048C28.6633 15.1973 29.25 14.3833 29.8366 13.606C30.438 12.8287 30.9953 12.1687 31.5086 11.626H32.8506V23H31.4426V13.452ZM42.0222 21.416C41.9342 21.196 41.8022 20.8953 41.6262 20.514C41.4502 20.118 41.2522 19.6853 41.0322 19.216C40.8269 18.732 40.5996 18.226 40.3502 17.698C40.1009 17.1553 39.8516 16.6347 39.6022 16.136C39.3676 15.6373 39.1402 15.168 38.9202 14.728C38.7002 14.288 38.5096 13.9287 38.3482 13.65C38.1576 15.3367 38.0182 16.9427 37.9302 18.468C37.8422 19.9787 37.7689 21.4893 37.7102 23H36.3682C36.4269 21.108 36.5222 19.2013 36.6542 17.28C36.8009 15.3587 36.9842 13.474 37.2042 11.626H38.6782C38.8689 11.934 39.1109 12.374 39.4042 12.946C39.7122 13.518 40.0422 14.1707 40.3942 14.904C40.7609 15.6227 41.1349 16.4073 41.5162 17.258C41.9122 18.094 42.3082 18.9447 42.7042 19.81C43.1002 18.9447 43.4889 18.094 43.8702 17.258C44.2662 16.4073 44.6402 15.6227 44.9922 14.904C45.3589 14.1707 45.6889 13.518 45.9822 12.946C46.2756 12.374 46.5249 11.934 46.7302 11.626H48.1822C48.4022 13.474 48.5782 15.3587 48.7102 17.28C48.8569 19.2013 48.9596 21.108 49.0182 23H47.6542C47.5956 21.4893 47.5222 19.9787 47.4342 18.468C47.3462 16.9427 47.2069 15.3367 47.0162 13.65C46.8549 13.9433 46.6642 14.31 46.4442 14.75C46.2242 15.1753 45.9896 15.6373 45.7402 16.136C45.5056 16.6347 45.2636 17.1553 45.0142 17.698C44.7649 18.226 44.5302 18.732 44.3102 19.216C44.1049 19.6853 43.9142 20.118 43.7382 20.514C43.5622 20.8953 43.4302 21.196 43.3422 21.416H42.0222ZM57.2387 23.242C56.3587 23.242 55.5813 23.1027 54.9067 22.824C54.232 22.5453 53.6673 22.1493 53.2127 21.636C52.7727 21.108 52.4353 20.4847 52.2007 19.766C51.966 19.0327 51.8487 18.226 51.8487 17.346C51.8487 16.4513 51.966 15.6373 52.2007 14.904C52.45 14.1707 52.802 13.54 53.2567 13.012C53.7113 12.484 54.2613 12.0807 54.9067 11.802C55.552 11.5087 56.278 11.362 57.0847 11.362C57.7007 11.362 58.2727 11.4133 58.8007 11.516C59.3433 11.6187 59.7613 11.7507 60.0547 11.912L59.6807 13.144C59.3873 12.9973 59.0573 12.88 58.6907 12.792C58.324 12.704 57.8327 12.66 57.2167 12.66C55.9553 12.66 54.9947 13.0707 54.3347 13.892C53.6893 14.6987 53.3667 15.85 53.3667 17.346C53.3667 18.0207 53.44 18.644 53.5867 19.216C53.7333 19.7733 53.968 20.2573 54.2907 20.668C54.628 21.064 55.0533 21.3793 55.5667 21.614C56.0947 21.834 56.7327 21.944 57.4807 21.944C58.0967 21.944 58.61 21.878 59.0207 21.746C59.446 21.5993 59.754 21.4747 59.9447 21.372L60.2527 22.604C59.9887 22.7507 59.5707 22.89 58.9987 23.022C58.4413 23.1687 57.8547 23.242 57.2387 23.242ZM65.5978 18.358C65.3778 18.6953 65.1358 19.062 64.8718 19.458C64.6225 19.854 64.3731 20.2573 64.1238 20.668C63.8891 21.0787 63.6618 21.4893 63.4418 21.9C63.2218 22.296 63.0385 22.6627 62.8918 23H61.4178C61.7991 22.1347 62.2611 21.262 62.8038 20.382C63.3465 19.502 63.8525 18.732 64.3218 18.072C64.0285 17.984 63.7425 17.8593 63.4638 17.698C63.1998 17.5367 62.9578 17.3313 62.7378 17.082C62.5325 16.8327 62.3638 16.5393 62.2318 16.202C62.0998 15.85 62.0338 15.454 62.0338 15.014C62.0338 14.3833 62.1511 13.8407 62.3858 13.386C62.6351 12.9313 62.9651 12.5573 63.3758 12.264C63.8011 11.9707 64.2998 11.7507 64.8718 11.604C65.4585 11.4573 66.0818 11.384 66.7418 11.384C67.0351 11.384 67.3578 11.3987 67.7098 11.428C68.0765 11.4573 68.4358 11.5013 68.7878 11.56C69.1545 11.604 69.4918 11.6553 69.7998 11.714C70.1078 11.7727 70.3645 11.8313 70.5698 11.89V23H69.1398V18.424H67.0938C66.7711 18.424 66.4778 18.424 66.2138 18.424C65.9645 18.4093 65.7591 18.3873 65.5978 18.358ZM69.1398 12.858C68.9638 12.814 68.6778 12.77 68.2818 12.726C67.8858 12.6673 67.3798 12.638 66.7638 12.638C66.3531 12.638 65.9498 12.682 65.5538 12.77C65.1725 12.8433 64.8278 12.9753 64.5198 13.166C64.2118 13.3567 63.9625 13.606 63.7718 13.914C63.5958 14.2073 63.5078 14.574 63.5078 15.014C63.5078 15.4393 63.5885 15.7987 63.7498 16.092C63.9111 16.3707 64.1385 16.598 64.4318 16.774C64.7251 16.9353 65.0771 17.0527 65.4878 17.126C65.9131 17.1993 66.3825 17.236 66.8958 17.236H69.1398V12.858Z" fill="white"/>
<path d="M117.092 15.366C117.092 16.202 117.195 16.9647 117.4 17.654C117.605 18.3287 117.899 18.908 118.28 19.392C118.676 19.8613 119.153 20.228 119.71 20.492C120.267 20.756 120.898 20.888 121.602 20.888C122.291 20.888 122.915 20.756 123.472 20.492C124.029 20.228 124.499 19.8613 124.88 19.392C125.276 18.908 125.577 18.3287 125.782 17.654C125.987 16.9647 126.09 16.202 126.09 15.366C126.09 14.53 125.987 13.7747 125.782 13.1C125.577 12.4107 125.276 11.8313 124.88 11.362C124.499 10.878 124.029 10.504 123.472 10.24C122.915 9.976 122.291 9.844 121.602 9.844C120.898 9.844 120.267 9.976 119.71 10.24C119.153 10.504 118.676 10.878 118.28 11.362C117.899 11.846 117.605 12.4253 117.4 13.1C117.195 13.7747 117.092 14.53 117.092 15.366ZM128.994 15.366C128.994 16.6713 128.796 17.8227 128.4 18.82C128.019 19.8173 127.491 20.6533 126.816 21.328C126.156 21.988 125.379 22.4867 124.484 22.824C123.589 23.1613 122.636 23.33 121.624 23.33C120.612 23.33 119.651 23.1613 118.742 22.824C117.847 22.4867 117.063 21.988 116.388 21.328C115.728 20.6533 115.2 19.8173 114.804 18.82C114.408 17.8227 114.21 16.6713 114.21 15.366C114.21 14.0607 114.408 12.9167 114.804 11.934C115.2 10.9367 115.735 10.1007 116.41 9.426C117.099 8.75133 117.891 8.24533 118.786 7.908C119.681 7.57067 120.627 7.402 121.624 7.402C122.621 7.402 123.567 7.57067 124.462 7.908C125.357 8.24533 126.134 8.75133 126.794 9.426C127.469 10.1007 128.004 10.9367 128.4 11.934C128.796 12.9167 128.994 14.0607 128.994 15.366ZM141.561 23H138.899V18.182H134.565V23H131.903V11.494H134.565V15.982H138.899V11.494H141.561V23ZM149.454 13.694C149.439 14.3393 149.417 15.014 149.388 15.718C149.359 16.4073 149.285 17.0893 149.168 17.764C149.065 18.4387 148.897 19.084 148.662 19.7C148.427 20.316 148.097 20.8733 147.672 21.372C147.261 21.856 146.741 22.2667 146.11 22.604C145.494 22.9267 144.739 23.132 143.844 23.22L143.47 20.998C144.218 20.8513 144.797 20.6167 145.208 20.294C145.619 19.9567 145.934 19.5313 146.154 19.018C146.33 18.6367 146.462 18.204 146.55 17.72C146.653 17.236 146.726 16.73 146.77 16.202C146.829 15.6593 146.865 15.1093 146.88 14.552C146.895 13.9947 146.902 13.452 146.902 12.924V11.494H155.042V23H152.38V13.694H149.454ZM162.484 21.13C163.306 21.13 163.929 21.086 164.354 20.998V18.05C164.208 18.006 163.995 17.962 163.716 17.918C163.438 17.874 163.13 17.852 162.792 17.852C162.499 17.852 162.198 17.874 161.89 17.918C161.597 17.962 161.326 18.0427 161.076 18.16C160.842 18.2773 160.651 18.446 160.504 18.666C160.358 18.8713 160.284 19.1353 160.284 19.458C160.284 20.0887 160.482 20.5287 160.878 20.778C161.274 21.0127 161.81 21.13 162.484 21.13ZM162.264 11.208C163.144 11.208 163.885 11.318 164.486 11.538C165.088 11.758 165.564 12.066 165.916 12.462C166.283 12.858 166.54 13.342 166.686 13.914C166.848 14.4713 166.928 15.0873 166.928 15.762V22.736C166.518 22.824 165.894 22.9267 165.058 23.044C164.237 23.176 163.306 23.242 162.264 23.242C161.575 23.242 160.944 23.176 160.372 23.044C159.8 22.912 159.309 22.6993 158.898 22.406C158.502 22.1127 158.187 21.7313 157.952 21.262C157.732 20.7927 157.622 20.2133 157.622 19.524C157.622 18.864 157.747 18.3067 157.996 17.852C158.26 17.3973 158.612 17.0307 159.052 16.752C159.492 16.4587 159.998 16.2533 160.57 16.136C161.157 16.004 161.766 15.938 162.396 15.938C162.69 15.938 162.998 15.96 163.32 16.004C163.643 16.0333 163.988 16.092 164.354 16.18V15.74C164.354 15.432 164.318 15.1387 164.244 14.86C164.171 14.5813 164.039 14.3393 163.848 14.134C163.672 13.914 163.43 13.7453 163.122 13.628C162.829 13.5107 162.455 13.452 162 13.452C161.384 13.452 160.82 13.496 160.306 13.584C159.793 13.672 159.375 13.7747 159.052 13.892L158.722 11.736C159.06 11.6187 159.551 11.5013 160.196 11.384C160.842 11.2667 161.531 11.208 162.264 11.208ZM180.264 11.494V23H177.624C177.624 22.164 177.624 21.3353 177.624 20.514C177.639 19.6927 177.646 18.93 177.646 18.226C177.661 17.522 177.668 16.9133 177.668 16.4C177.683 15.872 177.69 15.4833 177.69 15.234C177.25 15.806 176.795 16.4367 176.326 17.126C175.857 17.8153 175.387 18.5047 174.918 19.194C174.463 19.8833 174.031 20.558 173.62 21.218C173.209 21.878 172.85 22.472 172.542 23H170.188V11.494H172.806C172.806 12.3447 172.799 13.1587 172.784 13.936C172.784 14.6987 172.784 15.3953 172.784 16.026C172.784 16.6567 172.777 17.2067 172.762 17.676C172.762 18.1453 172.762 18.5047 172.762 18.754C173.173 18.1233 173.598 17.478 174.038 16.818C174.478 16.1433 174.918 15.4907 175.358 14.86C175.813 14.2147 176.26 13.606 176.7 13.034C177.14 12.462 177.565 11.9487 177.976 11.494H180.264ZM175.248 9.778C174.779 9.778 174.339 9.712 173.928 9.58C173.532 9.448 173.173 9.25733 172.85 9.008C172.527 8.75867 172.263 8.458 172.058 8.106C171.853 7.73933 171.728 7.32867 171.684 6.874L173.598 6.368C173.847 7.40933 174.397 7.93 175.248 7.93C176.113 7.93 176.663 7.41667 176.898 6.39L178.79 6.896C178.731 7.35067 178.599 7.76133 178.394 8.128C178.203 8.48 177.947 8.78067 177.624 9.03C177.316 9.26467 176.957 9.448 176.546 9.58C176.135 9.712 175.703 9.778 175.248 9.778ZM193.317 23H190.655V18.182H186.321V23H183.659V11.494H186.321V15.982H190.655V11.494H193.317V23Z" fill="#3577F6"/>
<path d="M105.656 16.2937V11.6859L106.889 10.6734C106.947 10.6282 106.993 10.5696 107.023 10.5026C107.053 10.4357 107.067 10.3624 107.063 10.2891C107.058 10.2154 107.036 10.1439 106.999 10.0797C106.963 10.0156 106.912 9.96057 106.852 9.91874L93.2578 1.01249C93.1805 0.964241 93.0912 0.93866 93 0.93866C92.9089 0.93866 92.8195 0.964241 92.7422 1.01249L79.1484 9.91874C79.0876 9.96057 79.0371 10.0156 79.0005 10.0797C78.964 10.1439 78.9425 10.2154 78.9375 10.2891C78.9331 10.3624 78.9466 10.4357 78.9769 10.5026C79.0071 10.5696 79.0531 10.6282 79.1109 10.6734L84.0938 14.7516V15.0187C83.4656 16.3531 83.1453 17.8116 83.1565 19.2864C83.1678 20.7613 83.5103 22.2147 84.1587 23.5394C84.8072 24.864 85.745 26.026 86.9029 26.9395C88.0608 27.853 89.4091 28.4947 90.8483 28.8171C92.2875 29.1395 93.7808 29.1343 95.2177 28.8021C96.6546 28.4698 97.9986 27.8189 99.1501 26.8974C100.302 25.976 101.232 24.8075 101.871 23.4784C102.51 22.1494 102.843 20.6936 102.844 19.2187C102.848 17.7664 102.527 16.3316 101.906 15.0187V14.7516L104.719 12.45V16.2937L103.57 18.5906C103.463 18.8052 103.413 19.0437 103.424 19.2833C103.435 19.5229 103.507 19.7557 103.633 19.9596C103.76 20.1635 103.936 20.3316 104.146 20.4481C104.355 20.5646 104.591 20.6255 104.831 20.625H105.544C105.784 20.6255 106.02 20.5646 106.229 20.4481C106.439 20.3316 106.615 20.1635 106.742 19.9596C106.868 19.7557 106.94 19.5229 106.951 19.2833C106.962 19.0437 106.912 18.8052 106.805 18.5906L105.656 16.2937ZM89.2594 18.75C89.2752 16.8755 89.6113 15.0175 90.2531 13.2562C91.1659 13.166 92.0827 13.1222 93 13.125C93.9173 13.1222 94.8341 13.166 95.7469 13.2562C96.3887 15.0175 96.7248 16.8755 96.7406 18.75H89.2594ZM96.7406 19.6875C96.7207 21.1326 96.5239 22.5699 96.1547 23.9672C94.1109 23.2609 91.8891 23.2609 89.8453 23.9672C89.4761 22.5699 89.2793 21.1326 89.2594 19.6875H96.7406ZM93 12.1875C89.7938 12.1875 86.5734 12.6984 85.0313 13.6781V10.7812C85.0313 10.1437 87.8438 8.90624 93 8.90624C98.1563 8.90624 100.969 10.1437 100.969 10.7812V13.6781C99.4266 12.6984 96.2063 12.1875 93 12.1875ZM89.2031 13.3828C88.6391 15.1169 88.3419 16.9266 88.3219 18.75H84.1078C84.1657 17.5634 84.464 16.4008 84.9844 15.3328C85.0159 15.2687 85.032 15.198 85.0313 15.1266V15C85.0313 14.5453 86.4844 13.7812 89.2031 13.3828ZM84.1172 19.6875H88.3219C88.3441 21.2494 88.563 22.8022 88.9734 24.3094C88.2063 24.6556 87.4864 25.0982 86.8313 25.6266C85.2031 24.0648 84.2324 21.9406 84.1172 19.6875ZM87.5531 26.25C88.0806 25.8382 88.653 25.4876 89.2594 25.2047C89.5763 26.1496 90.0588 27.0305 90.6844 27.8062C89.5475 27.501 88.4829 26.9719 87.5531 26.25ZM93 28.125C91.95 28.125 90.8578 26.9156 90.1266 24.8625C91.9871 24.2125 94.013 24.2125 95.8734 24.8625C95.1422 26.9156 94.05 28.125 93 28.125ZM95.3156 27.8062C95.9412 27.0305 96.4238 26.1496 96.7406 25.2047C97.347 25.4876 97.9194 25.8382 98.4469 26.25C97.5171 26.9719 96.4525 27.501 95.3156 27.8062ZM99.1688 25.6266C98.5136 25.0982 97.7937 24.6556 97.0266 24.3094C97.437 22.8022 97.6559 21.2494 97.6781 19.6875H101.883C101.768 21.9406 100.797 24.0648 99.1688 25.6266ZM97.6781 18.75C97.6581 16.9266 97.3609 15.1169 96.7969 13.3828C99.5156 13.7812 100.969 14.5453 100.969 15V15.1266C100.968 15.198 100.984 15.2687 101.016 15.3328C101.536 16.4008 101.834 17.5634 101.892 18.75H97.6781ZM101.906 13.5422V10.7812C101.906 8.93437 97.425 7.96874 93 7.96874C88.575 7.96874 84.0938 8.93437 84.0938 10.7812V13.5422L80.1984 10.3547L93 1.96874L105.802 10.3547L101.906 13.5422ZM105.942 19.4672C105.901 19.5358 105.843 19.5924 105.773 19.6311C105.703 19.6698 105.624 19.6892 105.544 19.6875H104.831C104.751 19.6892 104.672 19.6698 104.602 19.6311C104.532 19.5924 104.474 19.5358 104.433 19.4672C104.39 19.3989 104.366 19.3209 104.361 19.2405C104.357 19.1601 104.374 19.08 104.409 19.0078L105.188 17.4562L105.966 19.0078C106.001 19.08 106.018 19.1601 106.014 19.2405C106.009 19.3209 105.985 19.3989 105.942 19.4672Z" fill="white"/>
</svg>
