<svg width="30" height="30" viewBox="0 0 30 30" fill="none" xmlns="http://www.w3.org/2000/svg">
<path d="M27.6563 16.2937V11.6859L28.8891 10.6734C28.947 10.6282 28.993 10.5696 29.0232 10.5026C29.0534 10.4357 29.0669 10.3624 29.0626 10.2891C29.0576 10.2154 29.0361 10.1439 28.9995 10.0797C28.963 10.0156 28.9124 9.96057 28.8516 9.91874L15.2579 1.01249C15.1806 0.964241 15.0912 0.93866 15.0001 0.93866C14.9089 0.93866 14.8196 0.964241 14.7423 1.01249L1.14851 9.91874C1.0877 9.96057 1.03714 10.0156 1.00061 10.0797C0.96408 10.1439 0.942529 10.2154 0.937568 10.2891C0.933207 10.3624 0.946712 10.4357 0.976922 10.5026C1.00713 10.5696 1.05314 10.6282 1.11101 10.6734L6.09382 14.7516V15.0187C5.46565 16.3531 5.14536 17.8116 5.15661 19.2864C5.16786 20.7613 5.51036 22.2147 6.15881 23.5394C6.80726 24.864 7.74507 26.026 8.90296 26.9395C10.0608 27.853 11.4092 28.4947 12.8484 28.8171C14.2876 29.1395 15.7808 29.1343 17.2178 28.8021C18.6547 28.4698 19.9986 27.8189 21.1502 26.8974C22.3018 25.976 23.2316 24.8075 23.8709 23.4784C24.5102 22.1494 24.8427 20.6936 24.8438 19.2187C24.8476 17.7664 24.5273 16.3316 23.9063 15.0187V14.7516L26.7188 12.45V16.2937L25.5704 18.5906C25.4632 18.8052 25.4128 19.0437 25.4238 19.2833C25.4348 19.5229 25.5069 19.7557 25.6333 19.9596C25.7597 20.1635 25.9361 20.3316 26.1458 20.4481C26.3555 20.5646 26.5915 20.6255 26.8313 20.625H27.5438C27.7837 20.6255 28.0197 20.5646 28.2294 20.4481C28.4391 20.3316 28.6155 20.1635 28.7419 19.9596C28.8682 19.7557 28.9404 19.5229 28.9514 19.2833C28.9624 19.0437 28.9119 18.8052 28.8048 18.5906L27.6563 16.2937ZM11.2594 18.75C11.2752 16.8755 11.6113 15.0175 12.2532 13.2562C13.166 13.166 14.0828 13.1222 15.0001 13.125C15.9173 13.1222 16.8341 13.166 17.747 13.2562C18.3888 15.0175 18.7249 16.8755 18.7407 18.75H11.2594ZM18.7407 19.6875C18.7208 21.1326 18.524 22.5699 18.1548 23.9672C16.1109 23.2609 13.8892 23.2609 11.8454 23.9672C11.4761 22.5699 11.2794 21.1326 11.2594 19.6875H18.7407ZM15.0001 12.1875C11.7938 12.1875 8.57351 12.6984 7.03132 13.6781V10.7812C7.03132 10.1437 9.84382 8.90624 15.0001 8.90624C20.1563 8.90624 22.9688 10.1437 22.9688 10.7812V13.6781C21.4266 12.6984 18.2063 12.1875 15.0001 12.1875ZM11.2032 13.3828C10.6392 15.1169 10.342 16.9266 10.3219 18.75H6.10788C6.16582 17.5634 6.46403 16.4008 6.98445 15.3328C7.01597 15.2687 7.03202 15.198 7.03132 15.1266V15C7.03132 14.5453 8.48445 13.7812 11.2032 13.3828ZM6.11726 19.6875H10.3219C10.3441 21.2494 10.5631 22.8022 10.9735 24.3094C10.2064 24.6556 9.4865 25.0982 8.83132 25.6266C7.20322 24.0648 6.23249 21.9406 6.11726 19.6875ZM9.5532 26.25C10.0806 25.8382 10.653 25.4876 11.2594 25.2047C11.5763 26.1496 12.0588 27.0305 12.6844 27.8062C11.5475 27.501 10.483 26.9719 9.5532 26.25ZM15.0001 28.125C13.9501 28.125 12.8579 26.9156 12.1266 24.8625C13.9871 24.2125 16.013 24.2125 17.8735 24.8625C17.1423 26.9156 16.0501 28.125 15.0001 28.125ZM17.3157 27.8062C17.9413 27.0305 18.4238 26.1496 18.7407 25.2047C19.3471 25.4876 19.9195 25.8382 20.447 26.25C19.5171 26.9719 18.4526 27.501 17.3157 27.8062ZM21.1688 25.6266C20.5136 25.0982 19.7938 24.6556 19.0266 24.3094C19.4371 22.8022 19.656 21.2494 19.6782 19.6875H23.8829C23.7677 21.9406 22.7969 24.0648 21.1688 25.6266ZM19.6782 18.75C19.6581 16.9266 19.361 15.1169 18.7969 13.3828C21.5157 13.7812 22.9688 14.5453 22.9688 15V15.1266C22.9681 15.198 22.9842 15.2687 23.0157 15.3328C23.5361 16.4008 23.8343 17.5634 23.8923 18.75H19.6782ZM23.9063 13.5422V10.7812C23.9063 8.93437 19.4251 7.96874 15.0001 7.96874C10.5751 7.96874 6.09382 8.93437 6.09382 10.7812V13.5422L2.19851 10.3547L15.0001 1.96874L27.8016 10.3547L23.9063 13.5422ZM27.9423 19.4672C27.9012 19.5358 27.8427 19.5924 27.7728 19.6311C27.7028 19.6698 27.6238 19.6892 27.5438 19.6875H26.8313C26.7514 19.6892 26.6724 19.6698 26.6024 19.6311C26.5324 19.5924 26.4739 19.5358 26.4329 19.4672C26.3902 19.3989 26.3656 19.3209 26.3615 19.2405C26.3574 19.1601 26.3739 19.08 26.4095 19.0078L27.1876 17.4562L27.9657 19.0078C28.0013 19.08 28.0178 19.1601 28.0137 19.2405C28.0096 19.3209 27.985 19.3989 27.9423 19.4672Z" fill="white"/>
</svg>
